<svg height="202" viewBox="0 0 203 202" width="203" xmlns="http://www.w3.org/2000/svg"><g fill="none" fill-rule="evenodd"><path d="m38.205 201.24h-7.063v-27.583c0-2.929-.911-4.395-2.734-4.395-1.975 0-3.901 1.263-5.773 3.789v28.189h-7.064v-27.583c0-2.929-.911-4.395-2.735-4.395-1.924 0-3.825 1.263-5.697 3.789v28.189h-7.139v-37.749h7.139v4.86c3.088-3.494 6.202-5.241 9.343-5.241 3.292 0 5.266 1.747 5.926 5.241 3.239-3.494 6.429-5.241 9.57-5.241 4.151 0 6.227 2.906 6.227 8.718z" fill="#fffffe"/><path d="m45.812 201.24h7.14v-37.749h-7.14zm0-42.22h7.14v-7.367h-7.14z" fill="#fffffe"/><path d="m83.195 201.24h-7.063v-27.583c0-2.929-.913-4.395-2.736-4.395-1.925 0-3.824 1.263-5.696 3.789v28.189h-7.141v-37.749h7.141v4.86c3.088-3.494 6.202-5.241 9.343-5.241 4.1 0 6.152 2.906 6.152 8.718z" fill="#fffffe"/><path d="m106.677 193.58v-22.429c-1.875-1.259-3.521-1.889-4.938-1.889-1.823 0-3.013 1.008-3.569 3.022-.255.906-.381 2.618-.381 5.134v10.497c0 2.266.153 3.876.456 4.834.556 1.813 1.722 2.719 3.494 2.719 1.469 0 3.115-.63 4.938-1.888zm7.063 7.66h-7.063v-3.721c-2.937 2.836-5.723 4.253-8.356 4.253-3.292 0-5.495-1.793-6.608-5.382-.659-2.072-.987-5.23-.987-9.476v-9.02c0-4.297.304-7.431.911-9.402 1.113-3.587 3.342-5.382 6.684-5.382 2.633 0 5.419 1.393 8.356 4.178v-15.635h7.063z" fill="#fffffe"/><g fill="#de0639"><path d="m134.213 201.772h-4.708c-3.546 0-6.129-.94-7.748-2.817-1.165-1.371-1.747-4.136-1.747-8.299v-39.003h7.139v11.838h6.457v6.303h-6.457v20.112c0 3.607 1.469 5.41 4.406 5.41h2.658z"/><path d="m175.622 163.491-7.899 37.749h-6.761l-4.861-23.166-4.709 23.166h-6.686l-8.126-37.749h7.215l4.559 23.545 4.633-23.545h6.456l4.862 23.545 4.177-23.545z"/><path d="m195.749 188.631v-12.532c0-4.607-1.518-6.912-4.556-6.912-2.99 0-4.483 2.305-4.483 6.912v12.532c0 4.61 1.493 6.912 4.483 6.912 3.038 0 4.556-2.302 4.556-6.912zm7.063-.38c0 5.117-1.011 8.687-3.038 10.711-2.024 2.026-4.886 3.038-8.581 3.038-3.546 0-6.408-1.012-8.583-3.038-1.976-1.823-2.963-5.393-2.963-10.711v-11.697c0-5.113.999-8.696 3-10.748 1.999-2.051 4.848-3.076 8.546-3.076 3.594 0 6.429 1.015 8.505 3.038 2.077 2.026 3.114 5.621 3.114 10.786z"/><path d="m195.749 188.631c0 4.61-1.518 6.912-4.556 6.912-2.99 0-4.483-2.302-4.483-6.912v-12.532c0-4.607 1.493-6.912 4.483-6.912 3.038 0 4.556 2.305 4.556 6.912zm3.949-22.863c-2.076-2.023-4.911-3.038-8.505-3.038-3.698 0-6.547 1.025-8.546 3.076-2.001 2.052-3 5.635-3 10.748v11.697c0 5.318.987 8.888 2.963 10.711 2.175 2.026 5.037 3.038 8.583 3.038 3.695 0 6.557-1.012 8.581-3.038 2.027-2.024 3.038-5.594 3.038-10.711v-11.697c0-5.165-1.037-8.76-3.114-10.786z"/><path d="m121.191 56.825-7.66-15.652 22.428-12.829zm9.807 32.147-21.497 27.349 9.085-50.711zm-31.889-30.847 13.939 3.995-4.303 22.469zm-22.444-6.014 15.357 4.367 10.249 28.149zm-5.739 2.569 11.097 14.057-19.375-.949zm25.623-33.429 17.481 34.809-20.842-5.974zm54.349-8.475-40.14 22.961-17.927-35.24-5.627 48.273-16.747-4.763-18.542 29.359 35.096 1.718 19.004 24.164-6.169 39.219 38.398-48.848-13.76-25.901z"/></g></g></svg>