<svg height="152" viewBox="0 0 350 152" width="350" xmlns="http://www.w3.org/2000/svg" xmlns:xlink="http://www.w3.org/1999/xlink"><mask id="a" fill="#fff"><path d="m0 0h349.549v151.947h-349.549z" fill="#fff" fill-rule="evenodd"/></mask><g fill="none" fill-rule="evenodd"><path d="m0 151.947h349.549v-151.947h-349.549z" fill="#000105" mask="url(#a)" transform="translate(.06 .053)"/><g fill="#fffffe"><path d="m168.923 98.44h-7.063v-27.583c0-2.929-.912-4.395-2.734-4.395-1.976 0-3.901 1.263-5.774 3.789v28.189h-7.064v-27.583c0-2.929-.911-4.395-2.735-4.395-1.923 0-3.824 1.263-5.697 3.789v28.189h-7.138v-37.75h7.138v4.861c3.089-3.494 6.203-5.241 9.344-5.241 3.291 0 5.266 1.747 5.925 5.241 3.24-3.494 6.429-5.241 9.57-5.241 4.151 0 6.228 2.906 6.228 8.718z"/><path d="m176.53 98.44h7.14v-37.75h-7.14zm0-42.22h7.14v-7.368h-7.14z"/><path d="m213.912 98.44h-7.063v-27.583c0-2.929-.912-4.395-2.736-4.395-1.924 0-3.823 1.263-5.696 3.789v28.189h-7.14v-37.75h7.14v4.861c3.088-3.494 6.202-5.241 9.343-5.241 4.101 0 6.152 2.906 6.152 8.718z"/><path d="m237.395 90.78v-22.429c-1.875-1.259-3.521-1.889-4.939-1.889-1.822 0-3.012 1.008-3.569 3.022-.254.905-.38 2.618-.38 5.135v10.497c0 2.265.152 3.876.456 4.833.556 1.813 1.721 2.72 3.493 2.72 1.469 0 3.116-.63 4.939-1.889zm7.063 7.66h-7.063v-3.721c-2.938 2.836-5.724 4.253-8.357 4.253-3.292 0-5.495-1.793-6.608-5.383-.659-2.072-.986-5.229-.986-9.475v-9.02c0-4.297.303-7.43.911-9.402 1.113-3.588 3.342-5.382 6.683-5.382 2.633 0 5.419 1.394 8.357 4.178v-15.636h7.063z"/></g><path d="m264.931 98.972h-4.709c-3.546 0-6.128-.939-7.748-2.817-1.165-1.37-1.746-4.136-1.746-8.299v-39.004h7.138v11.838h6.457v6.305h-6.457v20.111c0 3.607 1.469 5.41 4.407 5.41h2.658z" fill="#de0639"/><path d="m306.339 60.69-7.899 37.75h-6.761l-4.86-23.167-4.71 23.167h-6.685l-8.127-37.75h7.215l4.559 23.546 4.633-23.546h6.456l4.862 23.546 4.177-23.546z" fill="#de0639"/><path d="m326.467 85.832v-12.534c0-4.606-1.519-6.912-4.557-6.912-2.989 0-4.483 2.306-4.483 6.912v12.534c0 4.608 1.494 6.912 4.483 6.912 3.038 0 4.557-2.304 4.557-6.912zm7.063-.38c0 5.115-1.012 8.686-3.039 10.71-2.023 2.026-4.885 3.038-8.581 3.038-3.546 0-6.408-1.012-8.583-3.038-1.976-1.823-2.962-5.393-2.962-10.71v-11.698c0-5.114.999-8.697 3-10.748 1.999-2.05 4.848-3.076 8.545-3.076 3.595 0 6.43 1.014 8.506 3.038 2.076 2.027 3.114 5.621 3.114 10.786z" fill="#d02143"/><path d="m326.467 85.832c0 4.608-1.519 6.912-4.557 6.912-2.989 0-4.483-2.304-4.483-6.912v-12.534c0-4.606 1.494-6.912 4.483-6.912 3.038 0 4.557 2.306 4.557 6.912zm3.949-22.864c-2.076-2.024-4.911-3.038-8.506-3.038-3.697 0-6.546 1.026-8.545 3.076-2.001 2.051-3 5.634-3 10.748v11.698c0 5.317.986 8.887 2.962 10.71 2.175 2.026 5.037 3.038 8.583 3.038 3.696 0 6.558-1.012 8.581-3.038 2.027-2.024 3.039-5.595 3.039-10.71v-11.698c0-5.165-1.038-8.759-3.114-10.786z" fill="#de0639"/><path d="m85.355 63.37-7.659-15.653 22.427-12.829zm9.807 32.146-21.497 27.349 9.085-50.71zm-31.889-30.846 13.939 3.995-4.303 22.468zm-22.444-6.015 15.357 4.368 10.249 28.148zm-5.738 2.569 11.096 14.057-19.375-.948zm25.622-33.429 17.481 34.809-20.842-5.973zm54.349-8.475-40.14 22.962-17.927-35.24-5.627 48.272-16.747-4.763-18.542 29.36 35.096 1.717 19.004 24.165-6.169 39.218 38.398-48.848-13.76-25.901z" fill="#de0639"/></g></svg>